<svg width="253" height="262" viewBox="0 0 253 262" fill="none" xmlns="http://www.w3.org/2000/svg">
<path d="M126.721 16.2475C128.554 15.3657 130.69 15.3657 132.524 16.2475L222.591 59.5525C224.425 60.4344 225.757 62.102 226.21 64.0832L248.455 161.388C248.907 163.37 248.432 165.45 247.164 167.038L184.835 245.072C183.566 246.66 181.642 247.586 179.606 247.586H79.6391C77.6036 247.586 75.6789 246.66 74.4097 245.072L12.0816 167.038C10.8125 165.45 10.3371 163.37 10.7901 161.388L33.0348 64.0832C33.4877 62.102 34.8196 60.4344 36.6535 59.5525L126.721 16.2475Z" stroke="#00FF26" stroke-width="7" stroke-linecap="round" stroke-linejoin="round"/>
<path d="M175.26 230.043H83.3987L129.329 136.361L175.26 230.043Z" fill="#00FF26" stroke="black" stroke-width="0.5"/>
<path d="M221.949 157.285L170.152 221.998L129.9 136.695L221.949 157.285Z" fill="#00FF26" stroke="black" stroke-width="0.5"/>
<path d="M104.919 188.655L73.3717 149.236L129.439 136.699L104.919 188.655Z" fill="#00FF26" stroke="black" stroke-width="0.5"/>
<path d="M181.744 93.5868L195.14 151.61L129.131 136.292L181.744 93.5868Z" fill="#00FF26" stroke="black" stroke-width="0.5"/>
<path d="M127.228 31.9819L210.144 71.5309L128.259 136.513L127.228 31.9819Z" fill="#00FF26" stroke="black" stroke-width="0.5"/>
<path d="M69.6396 92.6485L127.699 64.0795L127.873 137.713L69.6396 92.6485Z" fill="#00FF26" stroke="black" stroke-width="0.5"/>
<path d="M31.4286 162.453L49.7709 76.159L128.809 138.055L31.4286 162.453Z" fill="#00FF26" stroke="black" stroke-width="0.5"/>
</svg>
